<?xml version="1.0" encoding="UTF-8" standalone="no"?>
<svg
   version="1.1"
   width="648pt"
   height="216pt"
   id="svg6"
   viewBox="0 0 648 216"
   sodipodi:docname="logo-ourown.cdr"
   xmlns:inkscape="http://www.inkscape.org/namespaces/inkscape"
   xmlns:sodipodi="http://sodipodi.sourceforge.net/DTD/sodipodi-0.dtd"
   xmlns="http://www.w3.org/2000/svg"
   xmlns:svg="http://www.w3.org/2000/svg">
  <defs
     id="defs6" />
  <sodipodi:namedview
     id="namedview6"
     pagecolor="#ffffff"
     bordercolor="#000000"
     borderopacity="0.25"
     inkscape:showpageshadow="2"
     inkscape:pageopacity="0.0"
     inkscape:pagecheckerboard="0"
     inkscape:deskcolor="#d1d1d1"
     inkscape:document-units="pt" />
  <path
     d="m 514.7684,48.0676 h 78.5288 c 7.7567,0 13.7031,3.5128 17.8178,10.5376 l 0.5356,1.2964 c 1.2957,3.136 1.8855,11.1438 1.7196,24.0017 l 0.3622,51.8926 h -26.2811 l -0.7978,-64.0817 -0.5271,-1.2754 c -0.7601,-1.8399 -2.5989,-3.0526 -5.4873,-3.6171 h -22.9568 c -0.4284,0.4812 -0.5032,8.8024 -0.2418,24.922 l 0.4894,44.0522 h -25.9673 l -0.1297,-0.3134 C 531.5637,133.768 531.3265,110.8743 531.0882,66.8217 520.4915,54.9881 515.0879,48.8412 514.8981,48.3814 Z"
     style="fill:#025fa1;fill-rule:evenodd"
     id="path1" />
  <path
     d="m 203.1217,48.0812 h 76.2081 c 6.7324,0 12.1047,2.1743 16.105,6.544 1.082,1.5054 1.8353,2.8225 2.2929,3.9305 l 0.8035,1.9446 c 1.1832,2.8642 1.6017,11.5199 1.2434,25.988 -0.8256,3.0109 -4.8309,5.3106 -11.9647,6.9205 h -0.6062 c 14.9176,8.7888 12.1777,26.208 12.3376,42.317 h -26.1401 l -0.0573,-29.5214 c -0.7818,-4.5293 -3.5341,-5.6451 -6.5191,-5.6451 h -47.6707 l -0.0855,-18.378 h 45.7464 c 6.2303,0 8.8676,-1.7818 8.8466,-5.5614 -0.0299,-5.4182 0.3173,-8.9491 -6.3556,-9.8683 h -32.5114 c -3.345,0 -8.5523,-0.1044 -15.5803,-0.3135 L 203.2424,48.3739 Z"
     style="fill:#025fa1;fill-rule:evenodd"
     id="path2" />
  <path
     d="m 47.2975,48.1214 h 51.2654 c 1.3345,0 2.5835,0.0662 3.7514,0.1955 l 16.1078,18.1309 0.5435,0.6592 c 0.0745,15.3204 0.0446,33.0438 0.0873,49.0103 0.0103,3.7795 -0.3266,6.7235 -0.5157,8.339 -0.7925,6.762 -4.9502,11.3304 -11.0024,11.3304 H 54.973 c -6.4753,0 -13.0314,-4.5702 -15.4967,-10.5373 -3.584,-8.6759 -2.83,-19.6298 -2.7406,-28.8525 -0.5058,-24.2528 -0.203,-37.8426 0.8839,-40.7278 1.7238,-5.0389 4.9527,-7.5477 9.6779,-7.5477 z m 16.548,63.0364 c 1.0799,2.6135 3.9153,3.9095 8.5357,3.9095 h 9.1995 c 8.1955,0 11.2011,-2.2131 11.2752,-7.5266 0.2183,-15.678 0.422,-28.2314 -0.4399,-36.0865 -0.3914,-3.5676 -3.9195,-4.5787 -6.1351,-4.5787 H 69.5127 c -5.7284,0 -6.5946,3.8301 -6.435,13.7779 0.2963,18.4549 -0.0093,28.6225 0.7678,30.5044 z"
     style="fill:#025fa1;fill-rule:evenodd"
     id="path3" />
  <path
     d="m 318.2975,48.0588 h 51.2655 c 1.3345,0 2.5835,0.0662 3.7513,0.1955 l 16.1079,18.1308 0.5435,0.6593 c 0.0744,15.3204 0.0445,33.0437 0.0873,49.0102 0.0103,3.7795 -0.3266,6.7235 -0.5158,8.339 -0.7924,6.762 -4.9502,11.3304 -11.0023,11.3304 H 325.973 c -6.4752,0 -13.0313,-4.5702 -15.4967,-10.5372 -3.584,-8.676 -2.83,-19.6299 -2.7406,-28.8525 -0.5057,-24.2528 -0.203,-37.8427 0.884,-40.7279 1.7238,-5.0389 4.9527,-7.5476 9.6778,-7.5476 z m 16.5481,63.0363 c 1.0799,2.6135 3.9152,3.9096 8.5356,3.9096 h 9.1995 c 8.1955,0 11.2011,-2.2132 11.2752,-7.5267 0.2183,-15.678 0.4221,-28.2314 -0.4398,-36.0864 -0.3915,-3.5676 -3.9195,-4.5787 -6.1352,-4.5787 h -16.7682 c -5.7284,0 -6.5945,3.8301 -6.435,13.7778 0.2963,18.455 -0.009,28.6225 0.7679,30.5044 z"
     style="fill:#025fa1;fill-rule:evenodd"
     id="path4" />
  <path
     d="m 127.6523,48.077 h 26.2179 c 0.4649,39.2854 0.7042,59.7132 1.0452,61.238 l 0.3688,1.652 c 0.6165,2.759 4.1536,3.9305 9.1715,3.9305 h 9.1785 c 7.2338,0 10.7793,-2.4037 10.7266,-7.234 L 183.7054,48.077 h 10.5291 l 15.9023,18.0556 0.0955,0.0958 c 0.3371,33.4312 0.7436,52.1305 0.2557,56.1957 -1.0545,8.782 -5.2265,13.1094 -11.603,13.1094 h -52.4361 c -5.0593,0 -9.4542,-2.312 -13.3079,-6.8579 -0.7551,-0.8906 -1.5159,-2.0489 -2.1634,-3.617 l -1.0882,-2.6345 c -2.372,-5.743 -2.1268,-66.2992 -2.2371,-74.3471 z m -15.8499,-0.0017 h 41.8983 c 0.1928,15.9656 0.3637,29.0704 0.5083,39.3103 0.053,3.7641 0.6497,3.5147 -0.005,15.5163 -14.5522,0.0734 -22.8747,-1.2963 -25.0962,-11.3363 -0.3824,-1.7297 -0.5859,-3.7242 -0.6069,-6.0061 -0.1046,-11.3797 -0.1262,4.6625 -0.1633,-18.8138 C 118.9768,56.3338 113.4549,50.1032 111.802,48.0753 Z"
     style="fill:#025fa1;fill-rule:evenodd"
     id="path5" />
  <path
     d="m 381.3086,48.0772 h 41.8986 c 0.1926,15.9658 0.3618,29.0698 0.5082,39.3104 0.1464,10.2405 0.2707,17.619 0.3697,22.1287 0.0363,1.6564 0.2728,2.4044 0.8658,3.2039 0.593,0.7993 1.4371,1.4428 2.5697,1.4539 3.2841,0.0317 8.3621,-0.0884 15.1669,-0.0848 4.5185,0.003 4.5328,-2.4101 4.4904,-8.7461 l -0.3868,-57.266 h 25.8626 l 0.1211,0.2928 c 0.1186,31.5522 0.2618,51.9097 0.4352,61.0896 0.0627,3.3141 0.8388,4.7098 2.8233,4.7166 2.9393,0.0103 7.3321,-0.0541 13.2062,-0.0363 8.8227,0.0267 7.3799,-0.9827 7.2581,-11.4312 l -0.6364,-54.6315 h 10.0664 l 15.9903,18.3047 h 0.1175 c 0.3216,29.8889 1.2971,47.7074 0.0634,53.0529 -2.5743,11.1502 -10.4321,16.3497 -20.7607,16.3497 h -9.1785 c -5.3102,0 -12.9847,-0.1047 -23.044,-0.3137 -2.9806,0 -10.3545,-4.1311 -12.0743,-6.2513 -3.433,4.1521 -4.5749,6.2513 -9.8577,6.2513 h -23.4728 c -17.0617,0.0862 -25.5546,-1.809 -25.7031,-17.3423 -0.109,-11.3828 -0.1261,-27.9045 -0.1635,-51.3809 -9.3608,-10.4118 -14.8827,-16.6424 -16.5356,-18.6704 z"
     style="fill:#025fa1;fill-rule:evenodd"
     id="path6" />
  <text
     x="38.494202"
     y="183.43671"
     id="text6"><tspan
       font-family="Gadugi"
       font-size="37.5px"
       fill="#fe4000"
       id="tspan6">Entrepreneurs Solution India Ltd</tspan></text>
</svg>
