<?xml version="1.0" encoding="UTF-8"?>
<svg width="300" height="90" viewBox="0 0 300 90" xmlns="http://www.w3.org/2000/svg">
  <!-- OUROWN text in blue -->
  <g fill="#0066AA">
    <!-- O -->
    <path d="M25.5 45C25.5 34.5 34 26 44.5 26C55 26 63.5 34.5 63.5 45C63.5 55.5 55 64 44.5 64C34 64 25.5 55.5 25.5 45ZM36 45C36 49.7 39.8 53.5 44.5 53.5C49.2 53.5 53 49.7 53 45C53 40.3 49.2 36.5 44.5 36.5C39.8 36.5 36 40.3 36 45Z"/>
    <!-- U -->
    <path d="M68 28H78.5V52C78.5 56.7 82.3 60.5 87 60.5C91.7 60.5 95.5 56.7 95.5 52V28H106V52C106 62.5 97.5 71 87 71C76.5 71 68 62.5 68 52V28Z"/>
    <!-- R -->
    <path d="M111 28H131C137.8 28 143.5 33.7 143.5 40.5C143.5 45.5 140.3 49.7 135.8 51.5L144 62H132L125.5 53H121.5V62H111V28ZM121.5 44H131C132.4 44 133.5 42.9 133.5 41.5C133.5 40.1 132.4 39 131 39H121.5V44Z"/>
    <!-- O -->
    <path d="M149.5 45C149.5 34.5 158 26 168.5 26C179 26 187.5 34.5 187.5 45C187.5 55.5 179 64 168.5 64C158 64 149.5 55.5 149.5 45ZM160 45C160 49.7 163.8 53.5 168.5 53.5C173.2 53.5 177 49.7 177 45C177 40.3 173.2 36.5 168.5 36.5C163.8 36.5 160 40.3 160 45Z"/>
    <!-- W -->
    <path d="M192 28H204L210 47L216 28H224L230 47L236 28H248L236 62H227L221 44L215 62H206L192 28Z"/>
    <!-- N -->
    <path d="M252 28H262.5V46L278 28H290V62H279.5V44L264 62H252V28Z"/>
  </g>
  
  <!-- "Entrepreneurs Solution India Ltd" text in orange -->
  <g fill="#FF5500">
    <text x="25" y="80" font-family="Arial, sans-serif" font-weight="bold" font-size="14">Entrepreneurs Solution India Ltd</text>
  </g>
</svg> 